<svg width="170" height="40" viewBox="0 0 170 40" fill="none" xmlns="http://www.w3.org/2000/svg">
<g clip-path="url(#clip0_5651_2164)">
<mask id="mask0_5651_2164" style="mask-type:luminance" maskUnits="userSpaceOnUse" x="0" y="0" width="170" height="40">
<path d="M169.6 0H0V40H169.6V0Z" fill="white"/>
</mask>
<g mask="url(#mask0_5651_2164)">
<path d="M20.108 0C8.166 0 0 7.6 0 20.108C0 32.05 8.166 40 20.108 40C32.05 40 40 32.05 40 20.108C40 7.6 32.05 0 20.108 0ZM31.986 31.986C31.2076 32.7612 30.3394 33.4406 29.4 34.01V17.6L25.8 15.6V35.6C24.4972 35.9882 23.156 36.233 21.8 36.33V10.03L18.2 8.03V36.318C16.9126 36.2118 15.6393 35.9744 14.4 35.61V16.8L10.8 18.8V34.038C6.258 31.332 3.6 26.438 3.6 20.1C3.6 15.014 5.154 10.804 8.096 7.924C10.988 5.098 15.142 3.6 20.108 3.6C25.074 3.6 29.158 5.092 32 7.912C34.882 10.78 36.4 14.998 36.4 20.112C36.4 25 34.874 29.1 31.986 31.986Z" fill="white"/>
<path d="M125.19 11.2H129.186L129.15 29.1999H125.154L125.19 11.2Z" fill="white"/>
<path d="M127.17 7.77997C126.522 7.77997 125.958 7.55196 125.478 7.09596C125.022 6.61596 124.794 6.05196 124.794 5.40396C124.794 4.75596 125.022 4.20397 125.478 3.74797C125.958 3.29197 126.522 3.06396 127.17 3.06396C127.818 3.06396 128.37 3.29197 128.826 3.74797C129.306 4.20397 129.546 4.75596 129.546 5.40396C129.546 6.05196 129.306 6.61596 128.826 7.09596C128.37 7.55196 127.818 7.77997 127.17 7.77997Z" fill="white"/>
<path d="M133.182 29.2H137.214V19.8041C137.214 18.1001 137.586 16.7921 138.33 15.8801C139.074 14.9681 140.118 14.5241 141.462 14.5481C142.254 14.5481 142.938 14.7041 143.514 15.0161C144.114 15.3281 144.57 15.8801 144.882 16.6721C145.218 17.4401 145.386 18.5441 145.386 19.9841V29.2H149.418V18.9041C149.418 16.1441 148.818 14.1041 147.618 12.7841C146.442 11.4401 144.762 10.7681 142.578 10.7681C141.162 10.7681 139.938 11.1281 138.906 11.8481C138.213 12.3152 137.629 12.9336 137.153 13.7034L136.962 11.2001H133.182V29.2Z" fill="white"/>
<path fill-rule="evenodd" clip-rule="evenodd" d="M156.13 28.444C157.498 29.236 159.058 29.632 160.81 29.632C162.178 29.632 163.39 29.44 164.446 29.056C165.526 28.672 166.45 28.12 167.218 27.4C168.01 26.68 168.658 25.84 169.162 24.88L165.454 23.296C165.07 24.064 164.53 24.7 163.834 25.204C163.138 25.684 162.25 25.924 161.17 25.924C160.186 25.924 159.286 25.708 158.47 25.276C157.678 24.82 157.042 24.172 156.562 23.332C156.222 22.7054 156.009 21.9854 155.922 21.172H169.522C169.522 19.0121 169.138 17.1521 168.37 15.5921C167.602 14.0321 166.57 12.8441 165.274 12.0281C164.002 11.1881 162.562 10.7681 160.954 10.7681C159.178 10.7681 157.594 11.1761 156.202 11.9921C154.834 12.7841 153.754 13.8881 152.962 15.3041C152.17 16.7201 151.774 18.3521 151.774 20.2C151.774 22.048 152.158 23.68 152.926 25.096C153.718 26.512 154.786 27.628 156.13 28.444ZM165.088 17.9681C165.026 17.7407 164.956 17.5247 164.878 17.3201C164.518 16.3121 163.99 15.5681 163.294 15.0881C162.622 14.5841 161.794 14.3321 160.81 14.3321C159.778 14.3321 158.89 14.5601 158.146 15.0161C157.402 15.4721 156.838 16.1441 156.454 17.0321C156.327 17.3189 156.22 17.6309 156.135 17.9681H165.088Z" fill="white"/>
<path d="M117.114 4V29.2H121.146V4H117.114Z" fill="white"/>
<path fill-rule="evenodd" clip-rule="evenodd" d="M109.561 29.2L109.416 26.5128C108.918 27.3034 108.307 27.9592 107.581 28.48C106.501 29.248 105.205 29.632 103.693 29.632C102.061 29.632 100.633 29.248 99.4086 28.48C98.2086 27.688 97.2606 26.584 96.5646 25.168C95.8926 23.752 95.5566 22.096 95.5566 20.2C95.5566 18.28 95.8926 16.624 96.5646 15.232C97.2606 13.816 98.2086 12.724 99.4086 11.956C100.633 11.164 102.061 10.768 103.693 10.768C105.205 10.768 106.501 11.164 107.581 11.956C108.289 12.4491 108.889 13.0758 109.381 13.836V4H113.377V29.2H109.561ZM108.769 23.188C109.177 22.324 109.381 21.328 109.381 20.2C109.381 19.072 109.177 18.076 108.769 17.212C108.385 16.348 107.833 15.676 107.113 15.196C106.417 14.716 105.601 14.476 104.665 14.476C103.705 14.476 102.853 14.716 102.109 15.196C101.365 15.676 100.777 16.348 100.345 17.212C99.9366 18.076 99.7206 19.072 99.6966 20.2C99.7206 21.328 99.9366 22.324 100.345 23.188C100.777 24.052 101.365 24.736 102.109 25.24C102.877 25.72 103.741 25.96 104.701 25.96C105.613 25.96 106.417 25.72 107.113 25.24C107.833 24.736 108.385 24.052 108.769 23.188Z" fill="white"/>
<path d="M88.7769 4V29.2H92.8089V4H88.7769Z" fill="white"/>
<path fill-rule="evenodd" clip-rule="evenodd" d="M76.8588 29.632C75.0588 29.632 73.4508 29.236 72.0348 28.444C70.6428 27.628 69.5508 26.512 68.7588 25.096C67.9668 23.68 67.5708 22.048 67.5708 20.2C67.5708 18.3521 67.9548 16.7201 68.7228 15.3041C69.5148 13.8881 70.6068 12.7841 71.9988 11.9921C73.3908 11.1761 74.9868 10.7681 76.7868 10.7681C78.5868 10.7681 80.1828 11.1761 81.5748 11.9921C82.967 12.7841 84.0468 13.8881 84.8148 15.3041C85.6068 16.7201 86.0028 18.3521 86.0028 20.2C86.0028 22.048 85.6188 23.68 84.8508 25.096C84.0828 26.512 83.0028 27.628 81.6108 28.444C80.2188 29.236 78.6348 29.632 76.8588 29.632ZM76.8588 25.924C77.8428 25.924 78.7188 25.684 79.4868 25.204C80.2548 24.7 80.8548 24.028 81.2868 23.188C81.7188 22.324 81.9348 21.328 81.9348 20.2C81.9348 19.0721 81.707 18.0881 81.251 17.2481C80.8188 16.3841 80.2188 15.7121 79.4508 15.2321C78.6828 14.7281 77.7948 14.4761 76.7868 14.4761C75.7788 14.4761 74.8908 14.7161 74.1228 15.1961C73.3548 15.6761 72.7548 16.3481 72.3228 17.2121C71.8908 18.0761 71.6748 19.0721 71.6748 20.2C71.6748 21.328 71.8908 22.324 72.3228 23.188C72.7788 24.028 73.3908 24.7 74.1588 25.204C74.9508 25.684 75.8508 25.924 76.8588 25.924Z" fill="white"/>
<path fill-rule="evenodd" clip-rule="evenodd" d="M52.1376 36.544C53.1696 36.76 54.3216 36.868 55.5936 36.868C57.4416 36.868 59.0616 36.496 60.4536 35.752C61.8456 35.032 62.9256 33.952 63.6936 32.512C64.4616 31.096 64.8456 29.368 64.8456 27.328V11.2001H60.8136V14.1026C60.276 13.2086 59.604 12.4811 58.7976 11.9201C57.7176 11.1521 56.4456 10.7681 54.9816 10.7681C53.3496 10.7681 51.9216 11.1521 50.6976 11.9201C49.4976 12.6881 48.5496 13.7561 47.8536 15.1241C47.1816 16.4921 46.8456 18.1121 46.8456 19.9841C46.8456 21.736 47.1816 23.284 47.8536 24.628C48.5496 25.948 49.4976 26.98 50.6976 27.724C51.9216 28.468 53.3496 28.84 54.9816 28.84C56.4456 28.84 57.7176 28.48 58.7976 27.76C59.604 27.2166 60.276 26.5194 60.8136 25.6684V27.436C60.8136 28.78 60.5856 29.884 60.1296 30.748C59.6736 31.612 59.0376 32.248 58.2216 32.656C57.4056 33.088 56.4816 33.304 55.4496 33.304C54.4896 33.304 53.6256 33.208 52.8576 33.016C52.0896 32.824 51.4176 32.596 50.8416 32.332C50.2896 32.092 49.8456 31.888 49.5096 31.72L47.9616 34.96C48.3456 35.224 48.8856 35.5 49.5816 35.788C50.2776 36.076 51.1296 36.328 52.1376 36.544ZM58.4736 24.7C57.8016 25.18 57.0096 25.42 56.0976 25.42C55.1376 25.42 54.2856 25.18 53.5416 24.7C52.7976 24.22 52.2096 23.572 51.7776 22.756C51.3696 21.916 51.1656 20.956 51.1656 19.8761C51.1656 18.7721 51.3696 17.8121 51.7776 16.9961C52.2096 16.1561 52.7856 15.5081 53.5056 15.0521C54.2496 14.5721 55.1016 14.3321 56.0616 14.3321C56.9736 14.3321 57.7776 14.5721 58.4736 15.0521C59.1696 15.5081 59.7096 16.1561 60.0936 16.9961C60.4776 17.8121 60.6696 18.7721 60.6696 19.8761C60.6696 20.956 60.4776 21.916 60.0936 22.756C59.7096 23.572 59.1696 24.22 58.4736 24.7Z" fill="white"/>
</g>
</g>
<defs>
<clipPath id="clip0_5651_2164">
<rect width="169.6" height="40" fill="white"/>
</clipPath>
</defs>
</svg>
