<svg width="161" height="40" viewBox="0 0 161 40" fill="none" xmlns="http://www.w3.org/2000/svg">
<path d="M155.134 3.6853L160 36.3149H151.298L150.874 30.4501H147.825L147.32 36.3149H138.517L142.838 3.6853H155.134ZM150.632 24.6657C150.201 20.9709 149.77 16.4093 149.339 10.9811C148.478 17.2154 147.939 21.7771 147.724 24.6657H150.632Z" fill="white"/>
<path d="M137.457 3.6853V36.3149H128.957V3.6853H137.457Z" fill="white"/>
<path d="M125.978 13.5608H118.083V11.1423C118.083 10.0136 117.982 9.2948 117.781 8.98578C117.579 8.67674 117.242 8.52222 116.771 8.52222C116.259 8.52222 115.869 8.73048 115.6 9.147C115.344 9.56352 115.216 10.195 115.216 11.0415C115.216 12.1298 115.364 12.9494 115.66 13.5003C115.943 14.0512 116.744 14.7163 118.063 15.4956C121.846 17.7394 124.228 19.5801 125.211 21.0178C126.193 22.4554 126.685 24.7732 126.685 27.971C126.685 30.2954 126.409 32.0084 125.857 33.1102C125.318 34.212 124.268 35.1392 122.707 35.8916C121.146 36.6306 119.328 37 117.256 37C114.981 37 113.036 36.57 111.42 35.7102C109.819 34.8502 108.769 33.7552 108.271 32.425C107.773 31.0948 107.524 29.207 107.524 26.7618V24.6254H115.418V28.5958C115.418 29.8184 115.526 30.6044 115.741 30.9538C115.97 31.3032 116.367 31.4778 116.933 31.4778C117.498 31.4778 117.915 31.256 118.184 30.8126C118.467 30.3692 118.608 29.711 118.608 28.8376C118.608 26.9162 118.346 25.66 117.821 25.0688C117.282 24.4776 115.957 23.49 113.843 22.1062C111.73 20.7088 110.33 19.6943 109.644 19.0628C108.957 18.4313 108.385 17.558 107.927 16.4428C107.483 15.3276 107.261 13.9034 107.261 12.1701C107.261 9.67102 107.577 7.8437 108.21 6.6882C108.856 5.5327 109.893 4.63248 111.319 3.98756C112.746 3.32918 114.469 3 116.488 3C118.696 3 120.574 3.35606 122.122 4.06816C123.683 4.78028 124.713 5.6805 125.211 6.76882C125.722 7.8437 125.978 9.67774 125.978 12.2709V13.5608Z" fill="white"/>
<path d="M105.191 22.7914C105.191 26.0698 105.111 28.3942 104.949 29.7646C104.801 31.1218 104.316 32.3646 103.495 33.4932C102.688 34.6218 101.591 35.4884 100.204 36.093C98.8178 36.6976 97.2024 37 95.3584 37C93.6086 37 92.0336 36.7178 90.6338 36.1536C89.2474 35.5758 88.1302 34.7158 87.2822 33.5738C86.4342 32.4318 85.9294 31.1888 85.7678 29.8452C85.6062 28.5016 85.5256 26.1504 85.5256 22.7914V17.2087C85.5256 13.9303 85.5996 11.6125 85.7476 10.2555C85.9092 8.885 86.3938 7.63544 87.2014 6.50682C88.0224 5.37818 89.1262 4.51156 90.5126 3.90694C91.899 3.30232 93.5144 3 95.3584 3C97.1082 3 98.6764 3.28888 100.063 3.86662C101.463 4.43094 102.587 5.28414 103.435 6.4262C104.283 7.56826 104.787 8.8111 104.949 10.1547C105.111 11.4983 105.191 13.8496 105.191 17.2087V22.7914ZM96.691 12.0694C96.691 10.5511 96.6034 9.58368 96.4286 9.16716C96.267 8.7372 95.9238 8.52222 95.3988 8.52222C94.9546 8.52222 94.6114 8.6969 94.369 9.04624C94.1402 9.38214 94.0258 10.3898 94.0258 12.0694V27.3058C94.0258 29.2004 94.0998 30.3692 94.248 30.8126C94.4094 31.256 94.7728 31.4778 95.3382 31.4778C95.917 31.4778 96.2872 31.2224 96.4486 30.712C96.6102 30.2014 96.691 28.9854 96.691 27.064V12.0694Z" fill="white"/>
<path d="M84.2428 3.6853V10.2152H79.1952V36.3149H70.695V10.2152H65.6674V3.6853H84.2428Z" fill="white"/>
<path d="M64.2436 3.6853V25.4921C64.2436 27.9643 64.1628 29.7043 64.0014 30.7121C63.8398 31.7063 63.362 32.7341 62.5678 33.7955C61.7736 34.8437 60.7238 35.6431 59.418 36.1939C58.1258 36.7313 56.5981 37.0001 54.8349 37.0001C52.8831 37.0001 51.16 36.6777 49.666 36.0327C48.1718 35.3877 47.0547 34.5481 46.3145 33.5135C45.5741 32.4789 45.1366 31.3905 45.002 30.2485C44.8674 29.0929 44.8 26.6745 44.8 22.9929V3.6853H53.3003V28.1525C53.3003 29.5767 53.3744 30.4903 53.5224 30.8933C53.684 31.2831 54.0002 31.4779 54.4714 31.4779C55.0098 31.4779 55.353 31.2629 55.501 30.8329C55.6626 30.3895 55.7435 29.3549 55.7435 27.7293V3.6853H64.2436Z" fill="white"/>
<path fill-rule="evenodd" clip-rule="evenodd" d="M20 30C25.5228 30 30 25.5228 30 20C30 14.4772 25.5228 10 20 10C14.4772 10 10 14.4772 10 20C10 25.5228 14.4772 30 20 30ZM20 40C31.0456 40 40 31.0456 40 20C40 8.9543 31.0456 0 20 0C8.9543 0 0 8.9543 0 20C0 31.0456 8.9543 40 20 40Z" fill="white"/>
</svg>
