<svg width="160" height="40" viewBox="0 0 160 40" fill="none" xmlns="http://www.w3.org/2000/svg">
<g clip-path="url(#clip0_5651_2141)">
<mask id="mask0_5651_2141" style="mask-type:luminance" maskUnits="userSpaceOnUse" x="0" y="0" width="160" height="40">
<path d="M159.8 0H0V40H159.8V0Z" fill="white"/>
</mask>
<g mask="url(#mask0_5651_2141)">
<path fill-rule="evenodd" clip-rule="evenodd" d="M23.059 0.26001L30.7056 9.32521L32.4892 26.0766L18.9925 40.26L3.28931 26.03L11.1962 5.91151L23.059 0.26001ZM11.8819 7.45601L18.189 14.1188L11.7389 23.474L4.97899 25.02L11.8819 7.45601ZM5.26321 26.1926L17.2505 37.0554L11.7528 24.7086L5.26321 26.1926ZM13.0693 24.707L19.1451 38.3522L30.569 26.3472L13.0693 24.707ZM31.0954 24.3446L29.6136 10.4298L20.0752 14.2613L31.0954 24.3446ZM19.1166 13.3465L29.1294 9.32449L22.7388 1.74836L12.6758 6.54247L19.1166 13.3465ZM19.0646 14.9697L30.1296 25.094L13.1797 23.5054L19.0646 14.9697Z" fill="white"/>
<path d="M80.4048 31.6959C77.0168 31.6959 74.1568 30.5959 71.8688 28.3519C69.5808 26.1079 68.4368 23.2919 68.4368 19.948C68.4368 16.604 69.5808 13.832 71.8688 11.588C74.1568 9.34395 77.0168 8.19995 80.4048 8.19995C83.2648 8.19995 85.7288 9.03595 87.8848 10.708C90.0408 12.336 91.4048 14.492 91.9768 17.088H87.9728C86.7848 13.964 83.9248 11.852 80.4048 11.852C78.0728 11.852 76.1808 12.644 74.6408 14.184C73.1008 15.724 72.3528 17.616 72.3528 19.948C72.3528 22.2799 73.1008 24.216 74.6408 25.7559C76.1808 27.2959 78.0728 28.044 80.4048 28.044C83.9248 28.044 86.7848 25.932 87.9728 22.808H91.9768C91.4048 25.404 90.0408 27.56 87.8848 29.232C85.7288 30.86 83.2648 31.6959 80.4048 31.6959Z" fill="white"/>
<path d="M129.346 10.532C127.806 8.99195 125.782 8.19995 123.274 8.19995C119.534 8.19995 116.806 9.73995 115.178 12.864C113.902 9.91595 111.086 8.19995 107.522 8.19995C104.266 8.19995 101.802 9.43195 100.174 11.94V8.72795H96.39V31.1679H100.174V17.836C100.174 14.272 102.638 11.852 106.334 11.852C109.854 11.852 112.142 14.184 112.142 17.748V31.1679H115.926V17.836C115.926 14.272 118.39 11.852 122.086 11.852C125.606 11.852 127.894 14.184 127.894 17.748V31.1679H131.678V16.692C131.678 14.096 130.886 12.072 129.346 10.532Z" fill="white"/>
<path fill-rule="evenodd" clip-rule="evenodd" d="M159.647 21.4V21.3996C159.688 20.8782 159.725 20.3944 159.725 19.948C159.725 16.604 158.581 13.832 156.293 11.588C154.049 9.34395 151.189 8.19995 147.801 8.19995C144.413 8.19995 141.553 9.34395 139.265 11.588C137.021 13.832 135.877 16.604 135.877 19.948C135.877 23.2919 137.021 26.1079 139.265 28.3519C141.553 30.5959 144.413 31.6959 147.801 31.6959C153.257 31.6959 157.657 28.616 159.285 23.996H155.105C153.917 26.504 151.145 28.22 147.801 28.22C145.777 28.22 144.017 27.604 142.565 26.372C141.113 25.14 140.233 23.512 139.925 21.532H159.637L159.647 21.4ZM155.677 18.144H139.969C140.717 14.272 143.797 11.676 147.801 11.676C151.805 11.676 154.973 14.316 155.677 18.144Z" fill="white"/>
<path fill-rule="evenodd" clip-rule="evenodd" d="M65.168 8.72803H48.096V12.38H61.384V16.78H54.696C52.364 16.78 50.428 17.484 48.888 18.936C47.348 20.3441 46.6 22.1041 46.6 24.2161C46.6 26.3721 47.348 28.1321 48.888 29.5841C50.428 30.9921 52.364 31.6961 54.696 31.6961C57.732 31.6961 60.372 30.3761 61.78 28.2641V31.1681H65.168V8.72803ZM61.384 23.8201C61.384 26.4601 58.876 28.2641 55.18 28.2641C52.496 28.2641 50.516 26.5481 50.516 24.2161C50.516 21.9281 52.496 20.2121 55.18 20.2121H61.384V23.8201Z" fill="white"/>
</g>
</g>
<defs>
<clipPath id="clip0_5651_2141">
<rect width="159.8" height="40" fill="white"/>
</clipPath>
</defs>
</svg>
