<svg width="75" height="37" viewBox="0 0 75 37" fill="none" xmlns="http://www.w3.org/2000/svg">
<path d="M66.1484 36.875C63.3225 36.875 61.1596 36.0246 59.6596 34.3237C58.173 32.6094 57.4297 30.1384 57.4297 26.9107V10.1161C57.4297 7.08929 58.1663 4.79241 59.6395 3.22545C61.1261 1.65848 63.2958 0.875 66.1484 0.875C69.0011 0.875 71.1641 1.65848 72.6373 3.22545C74.1239 4.79241 74.8672 7.08929 74.8672 10.1161V26.9107C74.8672 30.1384 74.1172 32.6094 72.6172 34.3237C71.1306 36.0246 68.9743 36.875 66.1484 36.875ZM66.2087 30.3661C67.2801 30.3661 67.8158 29.3281 67.8158 27.2522V9.99554C67.8158 8.25446 67.2935 7.38393 66.2489 7.38393C65.0703 7.38393 64.481 8.27455 64.481 10.0558V27.2924C64.481 28.3906 64.615 29.1808 64.8828 29.6629C65.1507 30.1317 65.5926 30.3661 66.2087 30.3661Z" fill="white"/>
<path d="M43.6284 36.5536V24.9219L37.9833 1.19644H44.9944L46.9632 13.1697L48.9319 1.19644H55.923L50.298 24.9219V36.5536H43.6284Z" fill="white"/>
<path d="M19.3806 36.5536L22.7958 1.19644H34.7891L38.144 36.5536H31.4543L30.952 30.8482H26.6931L26.2512 36.5536H19.3806ZM27.1953 25.2031H30.4096L28.8628 7.22323H28.5413L27.1953 25.2031Z" fill="white"/>
<path d="M0.898438 36.5536V1.19644H7.88951V15.3594L11.1842 1.19644H18.2958L14.3382 17.3884L19.1194 36.5536H11.7868L7.92969 19.4375V36.5536H0.898438Z" fill="white"/>
</svg>
