<svg width="148" height="40" viewBox="0 0 148 40" fill="none" xmlns="http://www.w3.org/2000/svg">
<g clip-path="url(#clip0_5651_2152)">
<mask id="mask0_5651_2152" style="mask-type:luminance" maskUnits="userSpaceOnUse" x="0" y="0" width="148" height="40">
<path d="M148 0H0V40H148V0Z" fill="white"/>
</mask>
<g mask="url(#mask0_5651_2152)">
<path fill-rule="evenodd" clip-rule="evenodd" d="M13.0682 15.7382C12.4841 14.5246 12.2237 13.1806 12.3122 11.8367C12.4008 10.4927 12.8353 9.19453 13.5736 8.06807C14.3119 6.94161 15.3288 6.02517 16.5258 5.40769C17.7227 4.79021 19.059 4.49267 20.4048 4.54397C21.7508 4.59527 23.0604 4.99367 24.207 5.70047C25.3534 6.40727 26.2976 7.39847 26.948 8.57785C27.5984 9.75725 27.933 11.0847 27.919 12.4315C27.905 13.7783 27.543 15.0986 26.8682 16.2642L20.5642 27.2001L22.4542 30.4741L29.7102 17.9062C31.1424 15.3623 31.5132 12.3562 30.7424 9.54051C29.9716 6.72481 28.1214 4.32679 25.5932 2.86705C23.065 1.40732 20.0632 1.0037 17.2393 1.74382C14.4153 2.48395 11.9973 4.30807 10.5102 6.82017C9.72038 8.16979 9.22858 9.67283 9.06782 11.2283C8.90706 12.7837 9.08108 14.3555 9.57818 15.8382C10.0837 15.7749 10.5927 15.7428 11.1022 15.7422L13.0682 15.7382ZM38.4982 22.0981C37.7146 20.7227 36.6424 19.5332 35.3554 18.6117C34.0682 17.6902 32.5968 17.0586 31.0422 16.7601C30.8448 17.2318 30.6184 17.6907 30.3642 18.1341L29.3762 19.8441C30.7246 19.927 32.0284 20.3581 33.1604 21.0953C34.2924 21.8325 35.214 22.8509 35.835 24.0505C36.456 25.2503 36.7552 26.5907 36.7034 27.9407C36.6516 29.2905 36.2508 30.6041 35.5398 31.7527C34.8288 32.9015 33.832 33.8461 32.647 34.4947C31.4618 35.1431 30.1288 35.4731 28.778 35.4525C27.4272 35.4319 26.1048 35.0613 24.94 34.3771C23.7752 33.6927 22.8078 32.7179 22.1322 31.5481L15.8382 20.6481H12.0602L19.2962 33.1841C19.545 33.6119 19.8209 34.0235 20.1222 34.4161L20.1822 34.4941C21.2128 35.8207 22.5346 36.8923 24.0458 37.6261C25.5568 38.3601 27.2164 38.7363 28.8962 38.7261C30.842 38.7259 32.7534 38.2135 34.4384 37.2405C36.1234 36.2675 37.5228 34.8681 38.4956 33.1831C39.4686 31.4979 39.9808 29.5865 39.9808 27.6407C39.981 25.6949 39.4688 23.7833 38.4962 22.0981H38.4982ZM14.7114 34.5705C15.8935 33.9545 16.8983 33.0463 17.6301 31.9321L18.5881 33.6001C18.8532 34.0573 19.1486 34.4963 19.4721 34.9141C18.4367 36.1183 17.1518 37.0829 15.7065 37.7411C14.2613 38.3993 12.6902 38.7355 11.1021 38.7261C9.63386 38.7459 8.17634 38.4737 6.81414 37.9255C5.45196 37.3773 4.21226 36.5639 3.16702 35.5325C2.12178 34.5013 1.29183 33.2727 0.725362 31.9179C0.158892 30.5633 -0.132812 29.1095 -0.132812 27.6411C-0.132812 26.1727 0.158892 24.7191 0.725362 23.3643C1.29183 22.0097 2.12178 20.7809 3.16702 19.7497C4.21226 18.7184 5.45196 17.905 6.81414 17.3568C8.17634 16.8086 9.63386 16.5364 11.1021 16.5562H25.6L23.716 19.8282H11.1021C9.73086 19.8288 8.38394 20.1903 7.19664 20.8763C6.00932 21.5623 5.02346 22.5485 4.33802 23.7363C3.6526 24.9239 3.29178 26.2709 3.29178 27.6421C3.2918 29.0135 3.65264 30.3605 4.33808 31.5481C5.00436 32.7027 5.95502 33.6673 7.09958 34.3505C8.24414 35.0337 9.5445 35.4125 10.8769 35.4511C12.2093 35.4895 13.5293 35.1863 14.7114 34.5705Z" fill="white"/>
<path d="M67.2327 32.404L66.6567 29.668L66.3687 29.56C66.1527 29.704 65.8647 29.812 65.5407 29.812C64.9647 29.812 64.4607 29.488 63.8487 28.804L58.6647 22.72L65.7927 15.052L65.6847 14.8H61.4727L54.0207 23.008V8.46405L53.7327 8.24805L50.0967 8.78805V32.8H54.0207V26.824L55.7847 24.916L60.8607 31.036C61.9407 32.368 63.3087 33.232 65.0367 33.232C65.9367 33.232 66.6207 33.016 67.0887 32.692L67.2327 32.404Z" fill="white"/>
<path fill-rule="evenodd" clip-rule="evenodd" d="M118.488 14.3682C123.96 14.3682 127.668 18.5442 127.668 23.8002C127.668 29.0562 123.96 33.2322 118.488 33.2322C115.932 33.2322 113.772 32.1882 112.224 30.6042V32.8002H108.696V8.82418L112.368 8.28418L112.62 8.46418V16.6362C114.132 15.2322 116.148 14.3682 118.488 14.3682ZM118.02 29.8122C121.404 29.8122 123.636 27.1482 123.636 23.8002C123.636 20.4882 121.404 17.7882 118.02 17.7882C114.852 17.7882 112.332 19.8762 112.332 23.8002C112.332 27.7242 114.852 29.8122 118.02 29.8122Z" fill="white"/>
<path fill-rule="evenodd" clip-rule="evenodd" d="M147.284 29.7041L147.86 32.3681L147.716 32.6201C147.212 32.9801 146.456 33.2321 145.556 33.2321C143.936 33.2321 142.748 32.3681 142.28 30.8921C140.732 32.3681 138.5 33.2321 136.124 33.2321C132.416 33.2321 128.996 31.1801 128.996 27.2921C128.996 23.2961 132.596 21.4601 137.024 21.4601C138.968 21.4601 140.48 21.8201 141.776 22.2881V21.2801C141.776 18.6882 139.436 17.4282 136.952 17.4282C134.9 17.4282 133.316 18.2922 132.056 19.5162H131.768L129.788 17.6442V17.3562C131.732 15.4842 134.216 14.3682 137.312 14.3682C141.2 14.3682 145.628 16.0962 145.628 21.2801V28.2281C145.628 29.2001 145.808 29.8121 146.456 29.8121C146.708 29.8121 146.888 29.7041 147.032 29.5961L147.284 29.7041ZM141.776 26.2841V24.9521C140.84 24.5921 139.292 24.1241 137.528 24.1241C134.684 24.1241 132.92 25.3481 132.92 27.2921C132.92 29.3441 134.864 30.3521 136.916 30.3521C139.4 30.3521 141.776 28.8041 141.776 26.2841Z" fill="white"/>
<path d="M105.155 21.9641C105.155 17.4642 102.239 14.3682 97.667 14.3682C95.255 14.3682 93.203 15.2322 91.799 16.6362C91.331 15.1962 90.215 14.3682 88.559 14.3682C87.623 14.3682 86.831 14.6202 86.327 14.9802L86.183 15.2322L86.759 17.8962L87.011 18.0042C87.155 17.8962 87.335 17.7882 87.587 17.7882C88.271 17.7882 88.415 18.4002 88.415 19.3722V32.8001H92.375V22.2881C92.375 19.5522 94.211 17.7522 96.911 17.7522C99.611 17.7522 101.231 19.5522 101.231 22.2881V32.8001H105.155V21.9641Z" fill="white"/>
<path fill-rule="evenodd" clip-rule="evenodd" d="M85.204 29.7041L85.78 32.3681L85.636 32.6201C85.132 32.9801 84.376 33.2321 83.476 33.2321C81.856 33.2321 80.668 32.3681 80.2 30.8921C78.652 32.3681 76.42 33.2321 74.044 33.2321C70.336 33.2321 66.916 31.1801 66.916 27.2921C66.916 23.2961 70.516 21.4601 74.944 21.4601C76.888 21.4601 78.4 21.8201 79.696 22.2881V21.2801C79.696 18.6882 77.356 17.4282 74.872 17.4282C72.82 17.4282 71.236 18.2922 69.976 19.5162H69.688L67.708 17.6442V17.3562C69.652 15.4842 72.136 14.3682 75.232 14.3682C79.12 14.3682 83.548 16.0962 83.548 21.2801V28.2281C83.548 29.2001 83.728 29.8121 84.376 29.8121C84.628 29.8121 84.808 29.7041 84.952 29.5961L85.204 29.7041ZM79.696 26.2841V24.9521C78.76 24.5921 77.212 24.1241 75.448 24.1241C72.604 24.1241 70.84 25.3481 70.84 27.2921C70.84 29.3441 72.784 30.3521 74.836 30.3521C77.32 30.3521 79.696 28.8041 79.696 26.2841Z" fill="white"/>
</g>
</g>
<defs>
<clipPath id="clip0_5651_2152">
<rect width="148" height="40" fill="white"/>
</clipPath>
</defs>
</svg>
