<svg width="144" height="40" viewBox="0 0 144 40" fill="none" xmlns="http://www.w3.org/2000/svg">
<g clip-path="url(#clip0_5651_2202)">
<mask id="mask0_5651_2202" style="mask-type:luminance" maskUnits="userSpaceOnUse" x="0" y="0" width="144" height="40">
<path d="M143.2 0H0V40H143.2V0Z" fill="white"/>
</mask>
<g mask="url(#mask0_5651_2202)">
<path d="M21.1672 33.9495C23.75 33.7309 26.2212 32.7999 28.306 31.2599L32.182 35.8599C29.2204 38.1345 25.681 39.5345 21.9648 39.9015C18.2485 40.2685 14.5038 39.5875 11.1545 37.9361C7.8052 36.2845 4.9852 33.7283 3.01378 30.5567C1.04234 27.3851 -0.00177778 23.7251 -0.000364779 19.9907C0.00104822 16.2564 1.04794 12.5971 3.02176 9.42702C4.9956 6.25698 7.81754 3.70285 11.1681 2.05385C14.5186 0.40485 18.2639 -0.273164 21.9798 0.0965731C25.6958 0.46631 29.234 1.86903 32.194 4.14591L28.316 8.74591C26.2326 7.20403 23.7622 6.27077 21.1796 6.05007C18.5972 5.82935 16.0042 6.32987 13.6894 7.49585C11.3746 8.66183 9.42898 10.4475 8.06914 12.654C6.70928 14.8605 5.98866 17.4011 5.9875 19.993C5.98636 22.5849 6.70472 25.1261 8.06262 27.3339C9.4205 29.5415 11.3646 31.3289 13.6783 32.4969C15.9921 33.6651 18.5846 34.1679 21.1672 33.9495Z" fill="white"/>
<path d="M33.558 34.6979L29.682 30.0979H29.688C31.0534 28.7939 32.1404 27.2265 32.883 25.4905C33.6254 23.7545 34.0084 21.8861 34.0084 19.9979C34.0084 18.1097 33.6254 16.2412 32.883 14.5052C32.1404 12.7693 31.0534 11.2019 29.688 9.89785L33.568 5.29785C35.5974 7.17139 37.2168 9.44497 38.3242 11.9754C39.4314 14.5057 40.0026 17.238 40.0016 20.0001C40.0008 22.7621 39.4278 25.4941 38.3188 28.0237C37.2098 30.5533 35.5888 32.8257 33.558 34.6979Z" fill="white"/>
<path d="M113.293 1.19995V33.32H117.121V1.19995H113.293Z" fill="white"/>
<path fill-rule="evenodd" clip-rule="evenodd" d="M132.289 30.2838C128.197 30.2838 125.073 28.0398 124.325 24.0798H142.761C142.849 23.5078 142.893 22.9358 142.893 22.3638C142.893 16.2038 138.581 10.7478 131.937 10.7478C125.073 10.7478 120.409 15.8078 120.409 22.3198C120.409 28.9198 125.117 33.8918 132.201 33.8918C136.601 33.8918 139.945 31.9118 141.881 28.9198L138.625 27.0718C137.525 28.8758 135.325 30.2838 132.289 30.2838ZM124.325 20.7358C124.941 16.9078 127.801 14.3558 131.937 14.3558C135.237 14.3558 138.361 16.3798 139.021 20.7358H124.325Z" fill="white"/>
<path d="M100.934 33.8918C94.2898 33.8918 89.3618 28.8318 89.3618 22.3198C89.3618 15.8078 94.2898 10.7478 100.934 10.7478C105.29 10.7478 108.986 13.0358 110.658 16.5118L107.446 18.3598C106.346 16.0278 103.882 14.4878 100.934 14.4878C96.5338 14.4878 93.1898 17.8758 93.1898 22.3198C93.1898 26.7198 96.5338 30.1078 100.934 30.1078C103.926 30.1078 106.346 28.5678 107.578 26.2798L110.834 28.1718C108.986 31.6038 105.246 33.8918 100.934 33.8918Z" fill="white"/>
<path d="M89.3714 10.9238C86.5994 10.9238 83.9154 11.9358 82.5074 15.0158V11.3198H78.6794V33.3198H82.5074V21.6598C82.5074 16.4678 86.0714 14.7958 89.3714 14.9278V10.9238Z" fill="white"/>
<path d="M72.2674 7.31597C70.8154 7.31597 69.6714 6.17197 69.6714 4.76397C69.6714 3.35597 70.8154 2.16797 72.2674 2.16797C73.6754 2.16797 74.8194 3.35597 74.8194 4.76397C74.8194 6.17197 73.6754 7.31597 72.2674 7.31597Z" fill="white"/>
<path d="M70.3314 33.3198V11.3198H74.1594V33.3198H70.3314Z" fill="white"/>
<path d="M46.4 22.3198C46.4 28.8318 51.328 33.8918 57.972 33.8918C62.284 33.8918 66.024 31.6038 67.872 28.1718L64.616 26.2798C63.384 28.5678 60.964 30.1078 57.972 30.1078C53.572 30.1078 50.228 26.7198 50.228 22.3198C50.228 17.8758 53.572 14.4878 57.972 14.4878C60.92 14.4878 63.384 16.0278 64.484 18.3598L67.696 16.5118C66.024 13.0358 62.328 10.7478 57.972 10.7478C51.328 10.7478 46.4 15.8078 46.4 22.3198Z" fill="white"/>
</g>
</g>
<defs>
<clipPath id="clip0_5651_2202">
<rect width="143.2" height="40" fill="white"/>
</clipPath>
</defs>
</svg>
