<svg width="179" height="40" viewBox="0 0 179 40" fill="none" xmlns="http://www.w3.org/2000/svg">
<g clip-path="url(#clip0_5651_2181)">
<mask id="mask0_5651_2181" style="mask-type:luminance" maskUnits="userSpaceOnUse" x="0" y="0" width="179" height="40">
<path d="M179 0H0V40H179V0Z" fill="white"/>
</mask>
<g mask="url(#mask0_5651_2181)">
<path d="M16.1287 39.8999H13.0714V-0.100098L16.1287 2.44768V39.8999Z" fill="white"/>
<path d="M6.44714 39.8999H9.50446V7.65283L6.44714 10.2006V39.8999Z" fill="white"/>
<path d="M3.13508 39.8999H0.0777588V17.8439L3.13508 15.2961V39.8999Z" fill="white"/>
<path d="M29.1225 39.8999H26.0651V15.2961L29.1225 17.8439V39.8999Z" fill="white"/>
<path d="M19.6956 39.8999H22.7528V10.2006L19.6956 7.65283V39.8999Z" fill="white"/>
<path fill-rule="evenodd" clip-rule="evenodd" d="M62.3875 28.6268V27.2516H58.9881V28.5658C58.9881 31.4994 59.9375 34.12 64.0277 34.12C68.1181 34.12 69.2069 31.1634 69.2069 28.008C69.2069 24.2643 68.2019 22.8358 64.9211 20.368C62.9947 18.9393 62.7015 18.076 62.7015 16.6014C62.7015 15.1269 62.9599 14.1566 64.0975 14.1566C65.2353 14.1566 65.4935 15.1193 65.4935 16.6473V17.7398H68.8439V16.548C68.8439 14.1337 68.1321 11.2 64.1743 11.2C60.2167 11.2 59.3441 14.1566 59.3441 17.0828C59.3441 20.3756 60.6075 21.598 62.9599 23.4774C65.3121 25.357 65.8217 26.098 65.8217 28.4894C65.8217 29.9332 65.4447 31.2016 64.1603 31.2016C62.8761 31.2016 62.3875 30.277 62.3875 28.6268ZM42.6273 33.799L43.3881 27.855H46.7735L47.6389 33.799H51.1709L47.5063 11.5589H42.7319L39.2001 33.799H42.6273ZM45.1331 14.8211C45.3843 17.3347 45.8591 20.918 46.3615 24.6998H43.8349C43.9025 24.1866 43.9757 23.6376 44.0513 23.0694L44.0515 23.0688C44.4609 19.9987 44.9449 16.3683 45.0215 14.8211H45.1331ZM88.0599 33.799H85.4215C85.3255 33.2492 85.2649 32.6926 85.2399 32.1334C84.6327 33.6156 83.3553 34.1276 81.9453 34.1276C78.7205 34.1276 77.6805 31.7592 77.6805 28.0156V17.541C77.6805 13.912 79.0765 11.238 82.8807 11.238C87.4805 11.238 87.9691 14.6684 87.9691 17.0597V17.7779H84.5699V16.8917C84.5699 15.7151 84.4023 14.3628 82.8597 14.3628C81.6243 14.3628 81.1007 15.2261 81.1007 17.0062V28.3822C81.1007 30.1624 81.6103 31.0868 82.8319 31.0868C84.2977 31.0868 84.6537 29.8492 84.6537 27.5572V24.3102H82.7551V21.361H88.0599V33.799ZM99.8567 33.799L100.624 27.855H103.982L104.847 33.799H108.365L104.701 11.5588H99.9265L96.4365 33.799H99.8567ZM102.369 14.8211C102.621 17.3347 103.095 20.9178 103.598 24.6996H101.043C101.111 24.1864 101.184 23.6372 101.26 23.0688V23.0682L101.26 23.0678C101.669 19.9979 102.153 16.3681 102.23 14.8211H102.369ZM119.924 23.8592V33.7912H116.545V11.5588H121.222C124.558 11.5588 126.527 12.9188 126.527 16.9068V17.7549C126.527 21.17 125.131 22.041 124.3 22.3924C125.577 23.0036 126.303 23.9204 126.303 26.9764C126.248 29.2554 126.315 31.5362 126.506 33.8066H123.239C122.992 32.6522 123.005 29.7662 123.013 27.9618C123.015 27.6764 123.016 27.4182 123.016 27.198C123.016 24.4858 122.667 23.867 120.705 23.867L119.924 23.8592ZM119.924 21.0248H120.698C122.485 21.0248 123.141 20.3372 123.141 17.923V17.159C123.141 15.44 122.792 14.3933 120.88 14.3933H119.924V21.0248ZM140.285 11.5588H135.601V33.799H140.285C145.492 33.799 146.064 30.063 146.064 26.6632V18.1369C146.064 14.0036 144.933 11.5588 140.285 11.5588ZM140.096 30.8804H139.014V14.5079H140.075C142.309 14.5079 142.658 15.822 142.658 17.8618V27.1292C142.658 29.4288 142.323 30.8804 140.096 30.8804ZM158.558 11.5588V33.799H155.18V11.5588H158.558ZM170.27 33.799L171.038 27.855H174.41L175.268 33.799H178.8L175.136 11.5588H170.361L166.829 33.799H170.27ZM173.828 23.3568C173.887 23.8006 173.946 24.2488 174.005 24.6996H171.464C171.506 24.3854 171.55 24.0576 171.596 23.7202C172.024 20.5306 172.569 16.4793 172.651 14.8211H172.776C172.998 17.035 173.398 20.0786 173.828 23.3568Z" fill="white"/>
</g>
</g>
<defs>
<clipPath id="clip0_5651_2181">
<rect width="179" height="40" fill="white"/>
</clipPath>
</defs>
</svg>
